<svg width="75" height="80" viewBox="0 0 75 80" fill="none" xmlns="http://www.w3.org/2000/svg">
<path fill-rule="evenodd" clip-rule="evenodd" d="M29 21C29 19.8954 29.8954 19 31 19H45C46.1046 19 47 19.8954 47 21V35C47 36.1046 46.1046 37 45 37H31C29.8954 37 29 36.1046 29 35V21Z" stroke="#7B8794" stroke-width="2" stroke-linecap="round" stroke-linejoin="round"/>
<path d="M38 24V32" stroke="#7B8794" stroke-width="2" stroke-linecap="round" stroke-linejoin="round"/>
<path d="M34 28H42" stroke="#7B8794" stroke-width="2" stroke-linecap="round" stroke-linejoin="round"/>
<path d="M7.41751 54.3C8.35351 52.58 9.59351 51.72 11.1375 51.72C12.0335 51.72 12.7455 52.028 13.2735 52.644C13.7215 53.172 13.9455 53.824 13.9455 54.6V55.02C13.9455 56.34 13.3695 57 12.2175 57H4.69351L5.08951 56.256H6.67351V49.68L7.41751 49.26V54.3ZM13.1415 54.6C13.1415 53.928 12.9295 53.388 12.5055 52.98C12.1455 52.628 11.6935 52.452 11.1495 52.452C10.2135 52.452 9.38151 52.904 8.65351 53.808C8.10151 54.488 7.69351 55.304 7.42951 56.256H12.1335C12.5175 56.256 12.7815 56.168 12.9255 55.992C13.0695 55.808 13.1415 55.476 13.1415 54.996V54.6ZM18.1209 57C17.4409 57 16.9169 56.78 16.5489 56.34C16.2449 55.964 16.0929 55.488 16.0929 54.912V49.68L16.8969 49.26V54.888C16.8969 55.8 17.3369 56.256 18.2169 56.256H18.6369V57H18.1209ZM24.9448 49.428C24.6568 49.428 24.5128 49.276 24.5128 48.972C24.5128 48.684 24.6568 48.54 24.9448 48.54C25.2328 48.54 25.3768 48.684 25.3768 48.972C25.3768 49.276 25.2328 49.428 24.9448 49.428ZM24.2728 50.676C23.9448 50.676 23.7808 50.512 23.7808 50.184C23.7808 49.856 23.9448 49.692 24.2728 49.692C24.5848 49.692 24.7408 49.856 24.7408 50.184C24.7408 50.512 24.5848 50.676 24.2728 50.676ZM25.6408 50.676C25.3208 50.676 25.1608 50.512 25.1608 50.184C25.1608 49.856 25.3208 49.692 25.6408 49.692C25.9608 49.692 26.1208 49.856 26.1208 50.184C26.1208 50.512 25.9608 50.676 25.6408 50.676ZM18.5968 57V56.256H19.3288C20.2168 56.256 20.6608 55.8 20.6608 54.888V53.16L21.4648 52.74V54.888C21.4648 55.8 21.9048 56.256 22.7848 56.256H23.2288C24.1088 56.256 24.5488 55.8 24.5488 54.888V52.728L25.3528 52.296V54.888C25.3528 55.8 25.7968 56.256 26.6848 56.256H27.1168C28.0048 56.256 28.4488 55.8 28.4488 54.888V52.284L29.2528 51.864V54.84C29.2528 55.784 29.7088 56.256 30.6208 56.256H31.3168V57H30.5368C29.7768 57 29.2208 56.732 28.8688 56.196C28.5168 56.732 27.9728 57 27.2368 57H26.5768C25.8328 57 25.2928 56.736 24.9568 56.208C24.6128 56.736 24.0768 57 23.3488 57H22.6888C21.9448 57 21.4008 56.736 21.0568 56.208C20.7208 56.736 20.1808 57 19.4368 57H18.5968ZM33.3653 50.28C33.0373 50.28 32.8733 50.112 32.8733 49.776C32.8733 49.456 33.0373 49.296 33.3653 49.296C33.6773 49.296 33.8333 49.456 33.8333 49.776C33.8333 50.112 33.6773 50.28 33.3653 50.28ZM31.2773 57V56.256H31.6973C32.5773 56.256 33.0173 55.8 33.0173 54.888V52.284L33.8213 51.864V54.912C33.8213 55.584 33.6253 56.108 33.2333 56.484C32.8733 56.828 32.3933 57 31.7933 57H31.2773ZM40.416 50.22C40.088 50.22 39.924 50.052 39.924 49.716C39.924 49.396 40.088 49.236 40.416 49.236C40.728 49.236 40.884 49.396 40.884 49.716C40.884 50.052 40.728 50.22 40.416 50.22ZM41.784 50.22C41.456 50.22 41.292 50.052 41.292 49.716C41.292 49.396 41.456 49.236 41.784 49.236C42.096 49.236 42.252 49.396 42.252 49.716C42.252 50.052 42.096 50.22 41.784 50.22ZM44.112 56.256H44.52V57H44.004C43.148 57 42.552 56.664 42.216 55.992C41.8 56.424 41.288 56.64 40.68 56.64C39.992 56.64 39.448 56.38 39.048 55.86C38.712 55.42 38.544 54.872 38.544 54.216C38.544 53.448 38.768 52.832 39.216 52.368C39.608 51.96 40.092 51.756 40.668 51.756C41.188 51.756 41.624 51.908 41.976 52.212V51.564L42.78 51.144V54.888C42.78 55.8 43.224 56.256 44.112 56.256ZM41.976 53.124C41.624 52.7 41.196 52.488 40.692 52.488C40.292 52.488 39.964 52.652 39.708 52.98C39.46 53.3 39.336 53.716 39.336 54.228C39.336 54.748 39.46 55.164 39.708 55.476C39.964 55.788 40.296 55.944 40.704 55.944C41.224 55.944 41.656 55.716 42 55.26C41.984 55.116 41.976 55 41.976 54.912V53.124ZM48.1229 50.304C47.7949 50.304 47.6309 50.136 47.6309 49.8C47.6309 49.48 47.7949 49.32 48.1229 49.32C48.4349 49.32 48.5909 49.48 48.5909 49.8C48.5909 50.136 48.4349 50.304 48.1229 50.304ZM44.4749 57V56.256H46.5149C46.0749 55.816 45.8549 55.184 45.8549 54.36C45.8549 53.496 46.0789 52.828 46.5269 52.356C46.9189 51.932 47.4389 51.72 48.0869 51.72C48.7509 51.72 49.2629 51.928 49.6229 52.344C49.9349 52.704 50.0909 53.184 50.0909 53.784V54.948C50.0829 55.596 49.8869 56.104 49.5029 56.472C49.1509 56.824 48.6709 57 48.0629 57H44.4749ZM49.2989 53.856C49.2989 52.92 48.8949 52.452 48.0869 52.452C47.6389 52.452 47.2869 52.62 47.0309 52.956C46.7829 53.284 46.6589 53.748 46.6589 54.348C46.6589 54.932 46.7789 55.396 47.0189 55.74C47.2669 56.084 47.5949 56.256 48.0029 56.256C48.8669 56.256 49.2989 55.808 49.2989 54.912V53.856ZM54.36 57C53.68 57 53.156 56.78 52.788 56.34C52.484 55.964 52.332 55.488 52.332 54.912V49.68L53.136 49.26V54.888C53.136 55.8 53.576 56.256 54.456 56.256H54.876V57H54.36ZM62.8879 50.28C62.5599 50.28 62.3959 50.112 62.3959 49.776C62.3959 49.456 62.5599 49.296 62.8879 49.296C63.1999 49.296 63.3559 49.456 63.3559 49.776C63.3559 50.112 63.1999 50.28 62.8879 50.28ZM58.2559 56.208C58.5519 54.976 59.0679 53.944 59.8039 53.112C60.6279 52.184 61.5959 51.72 62.7079 51.72C63.6039 51.72 64.3159 52.028 64.8439 52.644C65.2919 53.172 65.5159 53.824 65.5159 54.6V54.936C65.5159 55.616 65.3079 56.144 64.8919 56.52C64.5399 56.84 64.0719 57 63.4879 57H58.6039C57.8839 57 57.3439 56.756 56.9839 56.268C56.6079 56.756 56.0639 57 55.3519 57H54.8359V56.256H55.2559C56.1359 56.256 56.5759 55.8 56.5759 54.888V53.16L57.3799 52.74V54.888C57.3799 55.64 57.6719 56.08 58.2559 56.208ZM64.7119 54.84V54.6C64.7119 53.928 64.4999 53.388 64.0759 52.98C63.7159 52.628 63.2639 52.452 62.7199 52.452C61.7839 52.452 60.9519 52.892 60.2239 53.772C59.6719 54.444 59.2559 55.272 58.9759 56.256H63.4279C64.2839 56.256 64.7119 55.784 64.7119 54.84ZM67.6616 57V49.68L68.4656 49.26V57H67.6616ZM66.9776 59.832L67.2056 59.4H67.5176C67.4376 59.256 67.3976 59.112 67.3976 58.968C67.3976 58.744 67.4816 58.548 67.6496 58.38C67.8176 58.22 68.0176 58.14 68.2496 58.14C68.4256 58.14 68.5976 58.192 68.7656 58.296V58.752C68.6056 58.632 68.4496 58.572 68.2976 58.572C68.1696 58.572 68.0616 58.612 67.9736 58.692C67.8856 58.78 67.8416 58.88 67.8416 58.992C67.8416 59.128 67.8976 59.264 68.0096 59.4H69.0656L68.8376 59.832H66.9776Z" fill="#323F4B"/>
</svg>
