<svg width="100" height="80" viewBox="0 0 75 80" fill="none" xmlns="http://www.w3.org/2000/svg">
<path fill-rule="evenodd" clip-rule="evenodd" d="M36.5 34C40.6421 34 44 30.6421 44 26.5C44 22.3579 40.6421 19 36.5 19C32.3579 19 29 22.3579 29 26.5C29 30.6421 32.3579 34 36.5 34Z" stroke="#7B8794" stroke-width="2" stroke-linecap="round" stroke-linejoin="round"/>
<path d="M47 37L41.8 31.8" stroke="#7B8794" stroke-width="2" stroke-linecap="round" stroke-linejoin="round"/>
<path d="M31.6715 56.256V57H31.1555C30.4835 57 29.9635 56.784 29.5955 56.352C29.3075 56.784 28.8435 57 28.2035 57H20.6795L21.0755 56.256H22.6595V49.68L23.4035 49.26V54.3C24.3395 52.58 25.5795 51.72 27.1235 51.72C28.0195 51.72 28.7315 52.028 29.2595 52.644C29.7075 53.172 29.9315 53.824 29.9315 54.6V54.912C29.9315 55.808 30.3755 56.256 31.2635 56.256H31.6715ZM29.1275 54.6C29.1275 53.928 28.9155 53.388 28.4915 52.98C28.1315 52.628 27.6795 52.452 27.1355 52.452C26.1995 52.452 25.3675 52.904 24.6395 53.808C24.0875 54.488 23.6795 55.304 23.4155 56.256H28.1195C28.5035 56.256 28.7675 56.168 28.9115 55.992C29.0555 55.808 29.1275 55.476 29.1275 54.996V54.6ZM32.3848 50.256L32.6128 49.836H32.9248C32.8448 49.692 32.8048 49.544 32.8048 49.392C32.8048 49.168 32.8888 48.976 33.0568 48.816C33.2248 48.648 33.4248 48.564 33.6568 48.564C33.8328 48.564 34.0048 48.62 34.1728 48.732V49.176C34.0128 49.064 33.8568 49.008 33.7048 49.008C33.5768 49.008 33.4688 49.052 33.3808 49.14C33.2928 49.22 33.2488 49.316 33.2488 49.428C33.2488 49.564 33.3048 49.7 33.4168 49.836H34.4728L34.2448 50.256H32.3848ZM31.6288 57V56.256H32.0488C32.9288 56.256 33.3688 55.8 33.3688 54.888V52.284L34.1728 51.864V54.912C34.1728 55.584 33.9768 56.108 33.5848 56.484C33.2248 56.828 32.7448 57 32.1448 57H31.6288ZM38.3615 57C37.6815 57 37.1575 56.78 36.7895 56.34C36.4855 55.964 36.3335 55.488 36.3335 54.912V49.68L37.1375 49.26V54.888C37.1375 55.8 37.5775 56.256 38.4575 56.256H38.8775V57H38.3615ZM46.4214 56.256H46.8414V57H46.4094C45.7454 57 45.2134 56.924 44.8134 56.772C44.4214 56.62 44.0574 56.352 43.7214 55.968C42.6974 56.656 41.5134 57 40.1694 57H38.8374V56.256H40.1814C41.9254 56.256 43.2854 55.664 44.2614 54.48C43.5494 53.12 42.6894 52.44 41.6814 52.44C40.9934 52.44 40.3214 52.788 39.6654 53.484V52.692C40.3214 52.044 41.0054 51.72 41.7174 51.72H41.7414C42.9974 51.72 44.0854 52.568 45.0054 54.264V54.756C44.7574 55.076 44.4934 55.352 44.2134 55.584C44.4694 55.832 44.7574 56.008 45.0774 56.112C45.4054 56.208 45.8534 56.256 46.4214 56.256ZM46.807 57V56.256H47.143C48.055 56.256 48.511 55.784 48.511 54.84V49.68L49.315 49.26V54.852C49.315 55.532 49.115 56.068 48.715 56.46C48.339 56.82 47.843 57 47.227 57H46.807ZM51.6757 57V49.68L52.4797 49.26V57H51.6757Z" fill="#323F4B"/>
</svg>
