<svg width="375" height="288" viewBox="0 0 375 288" fill="none" xmlns="http://www.w3.org/2000/svg">
<g clip-path="url(#clip0)">
<path d="M128.811 83.2264C53.5505 141.42 91.469 166.453 45.4054 166.453C-0.658096 166.453 -38 129.191 -38 83.2264C-38 37.2618 -0.658096 0 45.4054 0C91.469 0 204.071 25.0329 128.811 83.2264Z" fill="#F2F2F2"/>
<path d="M146.5 169.15C146.5 178.822 110.783 200.806 63.6959 200.806C16.6085 200.806 -24.2063 178.822 -24.2063 169.15C-24.2063 166.731 -20.2083 169.735 -15.8976 167.642C-3.34788 161.54 26.5766 166.038 60.5405 165.787C61.5883 165.778 62.6401 165.773 63.6959 165.773C110.783 165.773 146.5 159.478 146.5 169.15Z" fill="#3F3D56"/>
<path opacity="0.1" d="M146.5 169.15C146.5 178.822 110.783 200.806 63.6959 200.806C16.6085 200.806 -24.2063 178.822 -24.2063 169.15C-24.2063 166.731 -20.2083 169.735 -15.8976 167.642C-3.34788 161.54 26.5766 166.038 60.5405 165.787C61.5883 165.778 62.6401 165.773 63.6959 165.773C110.783 165.773 146.5 159.478 146.5 169.15Z" fill="black"/>
<path d="M146.311 168.969C146.311 178.641 108.14 186.485 61.0522 186.485C13.9648 186.485 -24.2063 178.641 -24.2063 168.969C-24.2063 166.55 -21.8238 164.249 -17.5131 162.156C-4.96338 156.054 23.9329 151.718 57.8969 151.467C58.9447 151.457 59.9964 151.453 61.0522 151.453C108.14 151.453 146.311 159.297 146.311 168.969Z" fill="#3F3D56"/>
<path opacity="0.1" d="M58.9108 151.826C55.2893 157.717 50.3782 162.714 44.5456 166.442C38.7131 170.169 32.1105 172.531 25.2329 173.35C18.3554 174.169 11.3813 173.423 4.83367 171.169C-1.71398 168.915 -7.66531 165.211 -12.5741 160.335C-0.677577 155.477 26.7147 152.025 58.9108 151.826Z" fill="black"/>
<path d="M20.7363 166.135C44.0973 166.135 63.0351 145.888 63.0351 120.912C63.0351 95.9363 44.0973 75.6893 20.7363 75.6893C-2.62469 75.6893 -21.5625 95.9363 -21.5625 120.912C-21.5625 145.888 -2.62469 166.135 20.7363 166.135Z" fill="#3F3D56"/>
<path d="M66.7542 50.8432V61.4445L61.2986 67.7479C61.2986 67.7479 59.0016 66.8883 59.0016 61.1579L58.1401 52.8489L66.7542 50.8432Z" fill="#FFB9B9"/>
<path d="M61.2987 61.4445C61.2987 61.4445 70.2 55.4276 70.4871 53.4219C70.7742 51.4162 83.4083 42.2476 81.3983 47.978C79.3884 53.7084 73.0714 56.2871 73.0714 56.2871C73.0714 56.2871 68.19 69.467 63.883 69.1805C59.5759 68.894 59.5759 63.4501 61.2987 61.4445Z" fill="#FFB9B9"/>
<path d="M56.1303 125.911L55.2688 131.069L59.8631 129.923V125.911H56.1303Z" fill="#FFB9B9"/>
<path d="M56.9917 128.777C56.9917 128.777 62.3016 125.638 62.518 127.064C62.7344 128.49 65.0315 133.934 66.1801 134.507C67.3286 135.08 68.7643 141.384 66.1801 141.097C64.1785 140.875 56.8375 137.044 53.6286 135.327C53.2336 135.115 52.9352 134.759 52.795 134.334C52.6547 133.909 52.6833 133.446 52.8747 133.041C53.0629 132.694 53.1927 132.318 53.2589 131.928C53.2589 131.355 56.9917 128.777 56.9917 128.777Z" fill="#2F2E41"/>
<path d="M54.4075 70.6131C54.4075 70.6131 75.3685 80.3548 73.3585 87.8043C71.3486 95.2538 63.883 126.771 63.883 126.771C63.883 126.771 55.5561 128.777 54.9818 126.771C54.4075 124.765 60.4374 93.5347 59.8631 92.3886C59.2888 91.2426 48.6648 83.793 48.6648 83.793L26.8424 74.6244L36.0308 66.0288L54.4075 70.6131Z" fill="#2F2E41"/>
<path d="M70.1998 127.631L72.7842 134.221L68.1899 136.226L65.3185 131.069L70.1998 127.631Z" fill="#FFB9B9"/>
<path d="M54.6946 23.6238C54.6946 23.6238 52.1104 27.062 54.1203 28.7812C56.1303 30.5003 54.6946 36.8037 54.6946 36.8037L52.1104 43.9667L41.7734 41.9611V30.2138L42.3477 24.4834C42.3477 24.4834 47.5162 19.6125 48.0904 15.8878C48.6647 12.163 54.6946 23.6238 54.6946 23.6238Z" fill="#FFB9B9"/>
<path opacity="0.1" d="M54.6946 23.6238C54.6946 23.6238 52.1104 27.062 54.1203 28.7812C56.1303 30.5003 54.6946 36.8037 54.6946 36.8037L52.1104 43.9667L41.7734 41.9611V30.2138L42.3477 24.4834C42.3477 24.4834 47.5162 19.6125 48.0904 15.8878C48.6647 12.163 54.6946 23.6238 54.6946 23.6238Z" fill="black"/>
<path d="M37.4665 68.3209C37.4665 68.3209 50.9619 83.22 50.9619 83.793C50.9619 84.3661 58.1403 96.1134 58.1403 96.1134L72.21 127.344C72.21 127.344 66.7544 134.794 64.4573 134.221C62.1602 133.648 45.7935 100.411 45.7935 100.411C45.7935 100.411 42.9221 92.9617 35.1694 91.2426C27.4167 89.5234 21.3869 83.5065 24.2582 76.63C27.1296 69.7535 37.4665 68.3209 37.4665 68.3209Z" fill="#2F2E41"/>
<path d="M54.6946 25.6294C59.7692 25.6294 63.883 21.5245 63.883 16.4608C63.883 11.3971 59.7692 7.29215 54.6946 7.29215C49.62 7.29215 45.5062 11.3971 45.5062 16.4608C45.5062 21.5245 49.62 25.6294 54.6946 25.6294Z" fill="#FFB9B9"/>
<path d="M54.4075 31.3598C54.4075 31.3598 53.259 37.9498 52.1105 38.5228C50.9619 39.0959 50.1005 41.1015 47.5163 38.2363C44.932 35.3711 42.6349 29.6407 42.6349 29.6407L33.7337 40.5285L32.8723 70.6131C32.8723 70.6131 42.9221 68.0344 46.0806 70.6131C49.2391 73.1918 56.1304 72.9053 56.1304 72.9053L54.6947 67.1749L55.8432 57.4332L55.5561 48.5511L55.269 42.2476L54.4075 31.3598Z" fill="#F2F2F2"/>
<path d="M53.396 26.5371C53.396 26.5371 57.2789 28.4946 57.566 29.6407C57.8531 30.7868 63.0216 33.079 63.0216 33.079C63.0216 33.079 65.0316 35.0846 65.0316 36.2307C65.0316 37.3768 58.1403 50.5567 58.1403 50.5567C58.1403 50.5567 56.7046 59.4388 57.2789 61.1579C57.8531 62.877 56.1303 69.467 56.1303 69.467L59.5759 73.4783H56.4174C56.4174 73.4783 52.9718 71.7592 52.9718 70.8996C52.9718 70.04 53.5461 64.0231 53.8332 61.4444C54.1203 58.8658 54.1203 49.6971 53.5461 46.5454C52.9718 43.3937 53.2589 35.0846 53.2589 33.0789C53.2589 31.0733 53.396 26.5371 53.396 26.5371Z" fill="#3F3D56"/>
<path d="M44.5013 22.1865C44.5013 22.1865 43.2092 22.4777 39.4764 23.6238C35.7437 24.7699 30.0009 26.489 27.991 28.7812C26.5802 30.4763 25.3306 32.2988 24.2582 34.2251L25.4068 54.8545C25.4068 54.8545 23.1097 59.1523 23.3968 61.4445C23.684 63.7366 25.9811 64.0231 24.2582 68.894C22.5354 73.7648 19.0898 78.0626 22.2483 78.6357C25.4068 79.2087 33.7337 77.2031 37.4665 78.3492C41.1993 79.4952 45.5063 74.0514 45.5063 74.0514C45.5063 74.0514 39.7636 74.6244 40.625 72.3322C41.4864 70.0401 50.9619 44.2533 48.952 38.5229C46.942 32.7925 44.5013 22.1865 44.5013 22.1865Z" fill="#3F3D56"/>
<path d="M63.5959 34.7981L65.0315 35.9442C65.0315 35.9442 69.0514 50.2702 67.9029 51.7028C66.7544 53.1354 57.566 56.2871 56.9917 54.2815C56.4174 52.2758 63.5959 34.7981 63.5959 34.7981Z" fill="#3F3D56"/>
<path d="M21.0995 44.8263C21.0995 44.8263 16.7925 57.1467 16.7925 60.5849C16.7925 64.0231 17.3668 84.0796 17.3668 84.0796C17.3668 84.0796 17.6539 92.6752 23.6838 89.2369C29.7136 85.7987 23.6838 83.5065 23.6838 83.5065C23.6838 83.5065 23.9709 60.8714 26.268 57.7197C28.5651 54.568 29.4265 49.9837 29.4265 49.9837L21.0995 44.8263Z" fill="#FFB9B9"/>
<path d="M68.19 133.934C68.19 133.934 72.497 131.642 73.3584 133.361C74.2198 135.08 78.814 144.535 78.2398 145.681C77.6655 146.827 74.507 151.412 70.7742 150.266C67.0414 149.12 66.7543 143.103 66.7543 143.103L66.4672 136.226L68.19 133.934Z" fill="#2F2E41"/>
<path d="M56.4938 14.2461C55.8609 14.5434 55.11 14.721 54.7123 15.2953C54.4176 15.7208 54.3883 16.2737 54.1733 16.7444C53.9386 17.2104 53.5346 17.5695 53.0438 17.7487C52.5529 17.9278 52.012 17.9134 51.5314 17.7084C51.414 17.1377 51.0814 16.6337 50.6024 16.3006C50.3604 16.1418 50.0738 16.0646 49.7846 16.0805C49.4954 16.0963 49.219 16.2043 48.9959 16.3886C48.4041 16.9516 48.6135 17.9334 48.3374 18.7014C48.0781 19.2417 47.7214 19.7297 47.2851 20.1411C46.6567 20.8647 46.156 21.7133 45.3991 22.302C44.6423 22.8906 43.4946 23.1457 42.7427 22.5508C42.1104 22.0506 41.9793 21.1277 42.1329 20.3373C42.2864 19.5468 42.6672 18.8189 42.8819 18.0428C43.5797 15.521 42.4672 12.8286 42.8114 10.235C43.2525 6.91178 46.0832 4.28673 49.2427 3.14751C50.5575 2.61325 51.997 2.46106 53.3948 2.70854C54.8397 3.03049 56.0741 3.94843 57.458 4.47342C58.9379 5.03484 60.5471 5.13287 62.0958 5.46109C63.6445 5.7893 65.2383 6.42389 66.137 7.72454C66.7638 8.63172 66.9793 9.75834 67.4987 10.7307C68.0967 11.8406 69.0653 12.7065 70.2364 13.1781L68.5992 13.085C68.8737 13.8142 69.3213 14.4661 69.9037 14.9847C69.136 15.1409 68.3379 15.0357 67.6373 14.6858C67.65 15.0215 67.7315 15.3511 67.8768 15.6543C68.0222 15.9574 68.2282 16.2275 68.4823 16.448C67.2225 16.4102 65.894 16.3522 64.8296 15.6789C64.3082 15.3491 63.883 14.8897 63.3923 14.5158C62.3465 13.7189 61.049 13.3407 59.7841 12.9784C59.12 12.7882 58.3205 12.5237 57.7199 12.95C57.2197 13.3049 57.1407 13.9423 56.4938 14.2461Z" fill="#2F2E41"/>
<path d="M28.5653 30.7868L24.2582 34.225L18.5155 47.405C18.5155 47.405 26.5553 53.7084 28.5653 52.8489C30.5752 51.9893 34.0209 36.8037 34.0209 36.8037L28.5653 30.7868Z" fill="#3F3D56"/>
<path d="M93.1642 46.5135L75.041 56.447C74.9359 56.5166 74.8168 56.5625 74.6921 56.5813C74.5674 56.6 74.4401 56.5913 74.3191 56.5557C74.1981 56.5201 74.0865 56.4585 73.9919 56.3751C73.8974 56.2918 73.8223 56.1889 73.772 56.0735L69.3323 46.8134C69.2482 46.5495 69.2618 46.2641 69.3708 46.0093C69.4798 45.7546 69.6768 45.5473 69.9261 45.4253L84.9729 37.6862C85.1582 37.575 85.3782 37.5359 85.5906 37.5764C85.8031 37.6169 85.993 37.7342 86.1242 37.9058L93.6402 44.9715C93.7142 45.1031 93.7607 45.2484 93.7767 45.3984C93.7927 45.5484 93.778 45.7002 93.7335 45.8444C93.689 45.9886 93.6156 46.1222 93.5177 46.2373C93.4198 46.3523 93.2996 46.4463 93.1642 46.5135Z" fill="#2F2E41"/>
<path d="M91.9547 45.1456L74.9645 54.8357L70.4431 46.7047L85.0184 38.7956L91.9547 45.1456Z" fill="#F9A826"/>
<path d="M77.6995 42.3447C77.7879 42.2388 77.7864 42.092 77.696 42.0167C77.6055 41.9414 77.4605 41.9662 77.372 42.072C77.2835 42.1779 77.2851 42.3247 77.3755 42.4C77.4659 42.4753 77.611 42.4505 77.6995 42.3447Z" fill="#F2F2F2"/>
<path d="M83.9532 50.6182C84.0122 50.5477 84.0112 50.4498 83.9509 50.3996C83.8906 50.3494 83.7939 50.3659 83.7349 50.4364C83.6759 50.507 83.6769 50.6049 83.7372 50.6551C83.7975 50.7053 83.8942 50.6888 83.9532 50.6182Z" fill="#F2F2F2"/>
<path d="M120.635 152.13C120.635 158.694 116.725 160.985 111.901 160.985C111.79 160.985 111.678 160.984 111.567 160.981C111.344 160.976 111.122 160.966 110.903 160.951C106.549 160.644 103.168 158.234 103.168 152.13C103.168 145.814 111.256 137.844 111.865 137.253L111.866 137.252C111.889 137.228 111.901 137.217 111.901 137.217C111.901 137.217 120.635 145.567 120.635 152.13Z" fill="#F9A826"/>
<path d="M111.583 159.981L114.777 155.528L111.575 160.47L111.567 160.981C111.343 160.976 111.122 160.966 110.903 160.951L111.247 154.385L111.245 154.333L111.25 154.325L111.283 153.704L108.073 148.749L111.293 153.239L111.301 153.37L111.56 148.409L108.812 143.289L111.594 147.539L111.865 137.253L111.866 137.217V137.252L111.821 145.363L114.557 142.147L111.81 146.061L111.737 150.503L114.293 146.24L111.727 151.157L111.687 153.627L115.395 147.693L111.672 154.488L111.583 159.981Z" fill="#3F3D56"/>
<path d="M301.608 98.5375H156.413V178.312H301.608V98.5375Z" fill="#F2F2F2"/>
<path opacity="0.3" d="M180.746 139.305C187.355 139.305 192.712 133.959 192.712 127.364C192.712 120.769 187.355 115.423 180.746 115.423C174.137 115.423 168.779 120.769 168.779 127.364C168.779 133.959 174.137 139.305 180.746 139.305Z" fill="#F9A826"/>
<path opacity="0.3" d="M229.011 139.305C235.62 139.305 240.977 133.959 240.977 127.364C240.977 120.769 235.62 115.423 229.011 115.423C222.402 115.423 217.044 120.769 217.044 127.364C217.044 133.959 222.402 139.305 229.011 139.305Z" fill="#F9A826"/>
<path opacity="0.3" d="M277.276 139.305C283.885 139.305 289.242 133.959 289.242 127.364C289.242 120.769 283.885 115.423 277.276 115.423C270.667 115.423 265.309 120.769 265.309 127.364C265.309 133.959 270.667 139.305 277.276 139.305Z" fill="#F9A826"/>
<path opacity="0.3" d="M196.9 148.26H164.192V151.445H196.9V148.26Z" fill="#F9A826"/>
<path opacity="0.3" d="M245.564 148.26H212.856V151.445H245.564V148.26Z" fill="#F9A826"/>
<path d="M294.229 148.26H261.52V151.445H294.229V148.26Z" fill="#F9A826"/>
<path d="M412 254.565C412 264.781 374.277 288 324.544 288C274.811 288 231.703 264.781 231.703 254.565C231.703 252.01 235.926 255.183 240.479 252.973C253.734 246.528 285.339 251.279 321.212 251.014C322.318 251.004 323.429 250.999 324.544 250.999C374.277 250.999 412 244.35 412 254.565Z" fill="#3F3D56"/>
<path opacity="0.1" d="M412 254.565C412 264.781 374.277 288 324.544 288C274.811 288 231.703 264.781 231.703 254.565C231.703 252.01 235.926 255.183 240.479 252.973C253.734 246.528 285.339 251.279 321.212 251.014C322.318 251.004 323.429 250.999 324.544 250.999C374.277 250.999 412 244.35 412 254.565Z" fill="black"/>
<path d="M411.801 254.374C411.801 264.59 371.485 272.875 321.752 272.875C272.019 272.875 231.703 264.59 231.703 254.374C231.703 251.819 234.22 249.389 238.773 247.179C252.027 240.734 282.547 236.154 318.419 235.889C319.526 235.879 320.637 235.874 321.752 235.874C371.485 235.874 411.801 244.159 411.801 254.374Z" fill="#3F3D56"/>
<path d="M326.417 237.946C338.322 237.946 347.973 227.024 347.973 213.551C347.973 200.079 338.322 189.157 326.417 189.157C314.512 189.157 304.861 200.079 304.861 213.551C304.861 227.024 314.512 237.946 326.417 237.946Z" fill="#36334A"/>
<path d="M335.886 169.413L303.49 170.408C303.49 170.408 270.255 201.531 293.93 209.986C293.93 209.986 327.663 211.438 334.64 205.967C334.64 205.967 343.363 171.651 335.886 169.413ZM334.391 178.614L299.752 180.852C299.752 180.852 302.244 172.397 312.212 172.397C322.18 172.397 333.394 170.159 334.391 175.381C335.388 180.603 334.391 178.614 334.391 178.614Z" fill="#3F3D56"/>
<path d="M369.03 189.058L326.417 187.566L336.385 145.541C336.385 145.541 376.257 142.557 375.26 152.752C374.263 162.947 369.03 189.058 369.03 189.058Z" fill="#36334A"/>
<path d="M327.892 209.146C327.892 209.146 302.244 213.676 293.023 200.248C283.803 186.82 327.912 194.031 327.912 194.031L331.65 204.226L327.892 209.146Z" fill="#36334A"/>
<path d="M320.187 266.145C326.655 266.145 331.899 260.912 331.899 254.457C331.899 248.002 326.655 242.77 320.187 242.77C313.718 242.77 308.474 248.002 308.474 254.457C308.474 260.912 313.718 266.145 320.187 266.145Z" fill="#36334A"/>
<path d="M321.308 262.912C325.368 262.912 328.659 259.127 328.659 254.457C328.659 249.788 325.368 246.003 321.308 246.003C317.248 246.003 313.956 249.788 313.956 254.457C313.956 259.127 317.248 262.912 321.308 262.912Z" fill="#3F3D56"/>
<path d="M384.232 144.297C384.232 144.297 374.513 138.827 374.014 151.757L365.791 211.935H369.279L378.749 147.53C378.749 147.53 383.484 148.276 384.232 148.276C384.979 148.276 384.232 144.297 384.232 144.297Z" fill="#3F3D56"/>
<path d="M325.42 207.708C325.42 207.708 307.477 205.718 302.493 222.876C297.509 240.035 298.008 253.214 293.771 252.219C289.535 251.225 280.563 247.743 280.563 247.743L281.311 252.965C281.311 252.965 297.011 260.923 299.503 252.468C301.995 244.013 303.49 212.93 317.695 213.676C331.899 214.422 334.391 212.93 334.391 212.93L325.42 207.708Z" fill="#3F3D56"/>
<path d="M291.279 199.502C291.279 199.502 277.324 201.242 271.841 211.438C266.359 221.633 263.618 240.035 263.618 240.035H268.851C268.851 240.035 271.841 203.48 287.541 205.47L291.279 199.502Z" fill="#3F3D56"/>
<path d="M281.809 256.447L259.63 242.77C259.63 242.77 258.384 237.796 272.589 235.807C272.589 235.807 299.445 245.179 296.857 248.699C294.27 252.219 285.547 257.69 281.809 256.447Z" fill="#36334A"/>
<path d="M322.986 177.839C323.669 178.582 336.237 190.513 336.237 190.513C336.237 190.513 334.988 198.841 321.542 199.874L299.131 201.597C299.131 201.597 294.895 217.109 289.858 222.066C284.822 227.023 287.133 227.3 285.243 229.716C283.353 232.132 286.006 232.78 283.136 233.014C280.267 233.249 274.339 229.787 274.275 227.11C274.21 224.432 275.884 222.899 276.628 222.217C277.372 221.535 279.258 215.018 280.389 213.639C281.52 212.261 285.802 195.681 285.802 195.681C285.802 195.681 290.076 187.66 296 187.02C301.924 186.38 308.516 183.505 308.516 183.505" fill="#2F2E41"/>
<path opacity="0.1" d="M322.986 177.839C323.669 178.582 336.237 190.513 336.237 190.513C336.237 190.513 334.988 198.841 321.542 199.874L299.131 201.597C299.131 201.597 294.895 217.109 289.858 222.066C284.822 227.023 287.133 227.3 285.243 229.716C283.353 232.132 286.006 232.78 283.136 233.014C280.267 233.249 274.339 229.787 274.275 227.11C274.21 224.432 275.884 222.899 276.628 222.217C277.372 221.535 279.258 215.018 280.389 213.639C281.52 212.261 285.802 195.681 285.802 195.681C285.802 195.681 290.076 187.66 296 187.02C301.924 186.38 308.516 183.505 308.516 183.505" fill="black"/>
<path d="M301.247 138.017C301.247 138.017 296.531 125.23 293.303 129.304C290.075 133.379 298.497 140.07 298.497 140.07L301.247 138.017Z" fill="#A0616A"/>
<path d="M326.092 144.693L323.407 143.559C323.407 143.559 318.478 146.883 318.153 147.962C317.828 149.041 318.531 148.664 316.595 149.613C314.659 150.563 309.37 152.861 308.667 153.239C307.964 153.616 300.004 139.562 301.907 137.544C301.907 137.544 298.344 138.826 296.722 138.34C296.722 138.34 300.771 157.932 301.388 160.587C302.004 163.242 303.442 163.556 306.125 163.653C308.807 163.75 325.096 158.982 325.096 158.982L326.092 144.693Z" fill="#575A89"/>
<path d="M284.078 228.896C284.078 228.896 283.942 231.675 284.407 231.995C284.872 232.314 287.746 239.077 283.32 239.73C278.894 240.382 276.463 239.533 275.393 239.892C274.323 240.251 256.679 238.799 256.815 236.019C256.951 233.24 265.773 233.966 265.773 233.966C265.773 233.966 274.511 229.846 276.147 227.277C277.783 224.707 284.078 228.896 284.078 228.896Z" fill="#2F2E41"/>
<path opacity="0.1" d="M284.078 228.896C284.078 228.896 283.942 231.675 284.407 231.995C284.872 232.314 287.746 239.077 283.32 239.73C278.894 240.382 276.463 239.533 275.393 239.892C274.323 240.251 256.679 238.799 256.815 236.019C256.951 233.24 265.773 233.966 265.773 233.966C265.773 233.966 274.511 229.846 276.147 227.277C277.783 224.707 284.078 228.896 284.078 228.896Z" fill="black"/>
<path d="M293.182 243.537C293.182 243.537 290.498 255.203 288.53 255.084C286.561 254.965 272.665 248.217 270.955 246.88C268.76 245.164 268.847 242.131 271.367 242.768C273.887 243.405 281.014 242.834 282.226 241.55L285.341 238.248L293.182 243.537Z" fill="#2F2E41"/>
<path d="M320.692 178.72C321.427 179.411 343.792 198.343 343.792 198.343C343.792 198.343 343.153 206.739 329.817 208.745L307.591 212.089C307.591 212.089 304.496 227.867 299.834 233.176C295.172 238.486 297.498 238.594 295.788 241.141C294.079 243.688 296.772 244.141 293.928 244.583C291.083 245.026 284.919 242.003 284.659 239.337C284.4 236.672 285.958 235.021 286.65 234.287C287.342 233.553 288.749 226.916 289.776 225.459C290.804 224.002 293.866 207.156 293.866 207.156C293.866 207.156 297.545 198.846 303.407 197.778C309.269 196.71 315.633 193.364 315.633 193.364" fill="#2F2E41"/>
<path d="M341.278 137.706C347.135 137.706 351.883 132.968 351.883 127.124C351.883 121.28 347.135 116.542 341.278 116.542C335.422 116.542 330.674 121.28 330.674 127.124C330.674 132.968 335.422 137.706 341.278 137.706Z" fill="#A0616A"/>
<path d="M346.837 133.73C346.837 133.73 345.247 140.194 347.669 143.508C350.091 146.821 331.467 145.244 331.467 145.244C331.467 145.244 336.508 134.754 334.648 132.315C332.788 129.875 346.837 133.73 346.837 133.73Z" fill="#A0616A"/>
<path d="M323.031 143.894C320.781 146.279 321.548 159.801 321.548 159.801L322.985 171.878C322.985 171.878 321.265 174.069 321.828 174.943C322.39 175.817 323.309 176.681 321.535 177.091C319.762 177.501 315.673 178.159 316.982 180.08C317.409 180.624 317.867 181.144 318.352 181.637C318.77 182.077 319.265 182.588 319.828 183.158C321.143 184.483 322.816 186.114 324.672 187.833C325.198 188.323 325.737 188.818 326.289 189.317C333.37 195.709 342.175 202.475 343.997 199.228C347.048 193.789 349.168 193.012 349.028 188.382C348.887 183.752 352.814 171.87 352.814 171.87C352.814 171.87 357.381 151.592 350.946 145.548L349.94 143.942C349.473 143.195 348.782 142.614 347.966 142.281C347.15 141.947 346.249 141.879 345.391 142.084C342.251 142.833 337.436 143.868 335.35 143.701C332.127 143.441 332.834 142.119 332.834 142.119C332.834 142.119 325.281 141.509 323.031 143.894Z" fill="#575A89"/>
<path d="M313.088 187.149C313.088 187.149 299.968 190.396 301.893 194.972C303.817 199.548 315.175 191.185 315.175 191.185L313.088 187.149Z" fill="#A0616A"/>
<path d="M347.147 130.996C346.886 130.68 347.145 130.219 347.372 129.878C348.589 128.053 348.822 125.457 347.482 123.72C346.954 123.073 346.294 122.545 345.546 122.173C344.495 121.618 343.348 121.266 342.165 121.138C341.536 121.129 340.914 121.007 340.329 120.777C339.959 120.59 338.214 119.98 337.839 119.802C337.015 119.412 335.87 119.581 335.342 118.838C334.837 118.128 335.309 117.156 335.799 116.436C336.916 114.796 339.742 113.437 341.682 113.006C343.154 112.679 344.69 113.139 346.054 113.78C347.627 114.559 349.119 115.49 350.509 116.561C352.417 117.972 354.297 119.535 355.444 121.611C356.59 123.687 356.866 126.391 355.571 128.378C355.301 128.792 354.972 129.165 354.719 129.59C354.103 130.625 353.992 131.878 353.556 133.001C353.232 133.822 352.74 134.566 352.11 135.186C351.48 135.805 350.727 136.286 349.9 136.597C348.573 137.086 346.942 137.221 346.158 138.396L345.793 135.947C345.697 135.638 345.711 135.306 345.832 135.006C345.952 134.706 346.172 134.456 346.455 134.299L348.333 132.72C348.707 132.466 348.992 132.1 349.145 131.675C349.551 129.983 347.583 131.522 347.147 130.996Z" fill="#2F2E41"/>
<path opacity="0.1" d="M328.338 177.599L319.828 183.158C321.515 184.861 323.795 187.064 326.289 189.317C328.651 188.048 331.06 186.674 333.215 185.294C341.1 180.244 347.861 167.564 350.89 161.412C353.919 155.261 351.454 150.523 351.454 150.523C349.447 149.636 347.324 149.04 345.148 148.752C341.201 148.158 328.338 177.599 328.338 177.599Z" fill="black"/>
<path opacity="0.1" d="M327.214 175.85L318.353 181.637C318.77 182.077 319.265 182.588 319.828 183.158C321.143 184.483 322.816 186.114 324.672 187.833C327.189 186.492 329.787 185.021 332.091 183.546C339.976 178.496 346.737 165.815 349.766 159.664C352.795 153.512 344.645 155.719 344.645 155.719C344.645 155.719 348.874 153.809 344.926 153.215C340.979 152.621 327.214 175.85 327.214 175.85Z" fill="black"/>
<path d="M351.065 149.465C351.065 149.465 353.53 154.203 350.501 160.355C347.472 166.506 340.711 179.186 332.826 184.236C324.941 189.286 313.66 194.261 313.66 194.261C313.66 194.261 312.59 188.411 310.784 187.753L327.949 176.541C327.949 176.541 340.812 147.101 344.759 147.695C346.935 147.982 349.058 148.578 351.065 149.465Z" fill="#575A89"/>
<path d="M316.199 211.935V241.029H319.439V211.438L316.199 211.935Z" fill="#3F3D56"/>
<path d="M320.934 229.839C320.934 229.839 327.164 254.209 323.177 257.69C323.177 257.69 317.944 242.273 313.957 244.262L315.203 229.839H320.934Z" fill="#36334A"/>
<path d="M369.28 176.873L336.883 177.868C336.883 177.868 308.225 205.718 331.899 214.173C331.899 214.173 361.056 218.898 368.034 213.427C368.034 213.427 376.756 179.111 369.28 176.873ZM367.784 186.074L333.145 188.312C333.145 188.312 335.637 179.857 345.605 179.857C355.573 179.857 366.788 177.619 367.784 182.841C368.781 188.063 367.784 186.074 367.784 186.074V186.074Z" fill="#3F3D56"/>
<path d="M361.928 266.145C379.889 266.145 394.449 249.667 394.449 229.342C394.449 209.016 379.889 192.539 361.928 192.539C343.967 192.539 329.407 209.016 329.407 229.342C329.407 249.667 343.967 266.145 361.928 266.145Z" fill="#36334A"/>
<path d="M363.423 256.695C376.98 256.695 387.97 244.449 387.97 229.342C387.97 214.235 376.98 201.988 363.423 201.988C349.867 201.988 338.877 214.235 338.877 229.342C338.877 244.449 349.867 256.695 363.423 256.695Z" fill="#3F3D56"/>
<path d="M369.778 228.969C369.777 228.492 369.73 228.016 369.636 227.548L387.97 218.4L386.724 215.665L368.203 224.668C368.017 224.477 367.81 224.305 367.588 224.155L367.602 224.158L373.018 197.264L368.227 197.155L365.043 223.622L365.348 223.686C365.101 223.737 364.861 223.819 364.634 223.93L348.617 207.524L346.353 210.692L362.81 225.799C362.397 226.59 362.149 227.457 362.081 228.346L338.877 237.796L338.378 241.775L362.566 231.625C362.792 232.183 363.111 232.699 363.511 233.149L356.072 258.436H358.813L365.058 234.178C365.335 234.267 365.624 234.314 365.915 234.315C366.478 234.31 367.027 234.146 367.499 233.841L380.494 250.976L384.481 248.241L369.255 231.645C369.605 230.796 369.782 229.887 369.778 228.969Z" fill="#36334A"/>
<path d="M284.356 139.137C290.965 139.137 296.323 133.79 296.323 127.196C296.323 120.601 290.965 115.255 284.356 115.255C277.747 115.255 272.39 120.601 272.39 127.196C272.39 133.79 277.747 139.137 284.356 139.137Z" fill="#F9A826"/>
</g>
<defs>
<clipPath id="clip0">
<rect width="450" height="288" fill="white" transform="translate(-38)"/>
</clipPath>
</defs>
</svg>
