<svg width="91" height="80" viewBox="0 0 91 80" fill="none" xmlns="http://www.w3.org/2000/svg">
<path d="M54 37V35C54 32.7909 52.2091 31 50 31H42C39.7909 31 38 32.7909 38 35V37" stroke="#2F80ED" stroke-width="2" stroke-linecap="round" stroke-linejoin="round"/>
<path fill-rule="evenodd" clip-rule="evenodd" d="M46 27C48.2091 27 50 25.2091 50 23C50 20.7909 48.2091 19 46 19C43.7909 19 42 20.7909 42 23C42 25.2091 43.7909 27 46 27Z" stroke="#2F80ED" stroke-width="2" stroke-linecap="round" stroke-linejoin="round"/>
<path d="M7.15944 57C7.09544 57.688 6.73544 58.244 6.07944 58.668C5.44744 59.076 4.63544 59.28 3.64344 59.28C2.41144 59.28 1.48344 58.92 0.859437 58.2C0.395437 57.664 0.163437 57.004 0.163437 56.22C0.163437 55.532 0.339437 54.94 0.691437 54.444L1.47144 54.288C1.08744 54.872 0.895437 55.496 0.895437 56.16C0.895437 56.896 1.14744 57.484 1.65144 57.924C2.13144 58.348 2.79544 58.56 3.64344 58.56C4.51544 58.56 5.19944 58.376 5.69544 58.008C6.06344 57.736 6.27944 57.4 6.34344 57H5.11944L5.50344 56.256H7.19544V57H7.15944ZM2.88744 61.26C2.55944 61.26 2.39544 61.096 2.39544 60.768C2.39544 60.44 2.55944 60.276 2.88744 60.276C3.19944 60.276 3.35544 60.44 3.35544 60.768C3.35544 61.096 3.19944 61.26 2.88744 61.26ZM4.25544 61.26C3.93544 61.26 3.77544 61.096 3.77544 60.768C3.77544 60.44 3.93544 60.276 4.25544 60.276C4.57544 60.276 4.73544 60.44 4.73544 60.768C4.73544 61.096 4.57544 61.26 4.25544 61.26ZM18.9972 56.256H19.4172V57H18.9012C18.1812 57 17.6412 56.756 17.2812 56.268C16.9212 56.756 16.3772 57 15.6492 57H10.7652C10.0452 57 9.50519 56.756 9.14519 56.268C8.76919 56.756 8.22519 57 7.51319 57H6.99719V56.256H7.41719C8.29719 56.256 8.73719 55.8 8.73719 54.888V53.16L9.54119 52.74V54.888C9.54119 55.64 9.83319 56.08 10.4172 56.208C10.7132 54.976 11.2292 53.944 11.9652 53.112C12.7892 52.184 13.7572 51.72 14.8692 51.72C15.7652 51.72 16.4772 52.028 17.0052 52.644C17.4532 53.172 17.6772 53.824 17.6772 54.6V54.912C17.6772 55.808 18.1172 56.256 18.9972 56.256ZM15.5892 56.256C16.4452 56.256 16.8732 55.784 16.8732 54.84V54.6C16.8732 53.928 16.6612 53.388 16.2372 52.98C15.8772 52.628 15.4252 52.452 14.8812 52.452C13.9452 52.452 13.1132 52.892 12.3852 53.772C11.8332 54.444 11.4172 55.272 11.1372 56.256H15.5892ZM22.733 50.28C22.405 50.28 22.241 50.112 22.241 49.776C22.241 49.456 22.405 49.296 22.733 49.296C23.045 49.296 23.201 49.456 23.201 49.776C23.201 50.112 23.045 50.28 22.733 50.28ZM26.957 56.256H27.377V57H26.945C26.281 57 25.749 56.924 25.349 56.772C24.957 56.62 24.593 56.352 24.257 55.968C23.233 56.656 22.049 57 20.705 57H19.373V56.256H20.717C22.461 56.256 23.821 55.664 24.797 54.48C24.085 53.12 23.225 52.44 22.217 52.44C21.529 52.44 20.857 52.788 20.201 53.484V52.692C20.857 52.044 21.541 51.72 22.253 51.72H22.277C23.533 51.72 24.621 52.568 25.541 54.264V54.756C25.293 55.076 25.029 55.352 24.749 55.584C25.005 55.832 25.293 56.008 25.613 56.112C25.941 56.208 26.389 56.256 26.957 56.256ZM33.6905 49.428C33.4025 49.428 33.2585 49.276 33.2585 48.972C33.2585 48.684 33.4025 48.54 33.6905 48.54C33.9785 48.54 34.1225 48.684 34.1225 48.972C34.1225 49.276 33.9785 49.428 33.6905 49.428ZM33.0185 50.676C32.6905 50.676 32.5265 50.512 32.5265 50.184C32.5265 49.856 32.6905 49.692 33.0185 49.692C33.3305 49.692 33.4865 49.856 33.4865 50.184C33.4865 50.512 33.3305 50.676 33.0185 50.676ZM34.3865 50.676C34.0665 50.676 33.9065 50.512 33.9065 50.184C33.9065 49.856 34.0665 49.692 34.3865 49.692C34.7065 49.692 34.8665 49.856 34.8665 50.184C34.8665 50.512 34.7065 50.676 34.3865 50.676ZM27.3425 57V56.256H28.0745C28.9625 56.256 29.4065 55.8 29.4065 54.888V53.16L30.2105 52.74V54.888C30.2105 55.8 30.6505 56.256 31.5305 56.256H31.9745C32.8545 56.256 33.2945 55.8 33.2945 54.888V52.728L34.0985 52.296V54.888C34.0985 55.8 34.5425 56.256 35.4305 56.256H35.8625C36.7505 56.256 37.1945 55.8 37.1945 54.888V52.284L37.9985 51.864V54.84C37.9985 55.784 38.4545 56.256 39.3665 56.256H40.0625V57H39.2825C38.5225 57 37.9665 56.732 37.6145 56.196C37.2625 56.732 36.7185 57 35.9825 57H35.3225C34.5785 57 34.0385 56.736 33.7025 56.208C33.3585 56.736 32.8225 57 32.0945 57H31.4345C30.6905 57 30.1465 56.736 29.8025 56.208C29.4665 56.736 28.9265 57 28.1825 57H27.3425ZM40.023 57V56.256H40.359C41.271 56.256 41.727 55.784 41.727 54.84V49.68L42.531 49.26V54.852C42.531 55.532 42.331 56.068 41.931 56.46C41.555 56.82 41.059 57 40.443 57H40.023ZM44.8917 57V49.68L45.6957 49.26V57H44.8917ZM53.0834 57C52.4914 57 52.0194 56.816 51.6674 56.448C51.3154 56.072 51.1394 55.568 51.1394 54.936V53.364L51.9434 52.944V54.84C51.9434 55.784 52.3834 56.256 53.2634 56.256H57.2834C58.1634 56.256 58.6034 55.784 58.6034 54.84V52.284L59.4074 51.864V54.936C59.4074 55.616 59.1994 56.144 58.7834 56.52C58.4234 56.84 57.9514 57 57.3674 57H53.0834ZM55.0394 59.244C54.7114 59.244 54.5474 59.076 54.5474 58.74C54.5474 58.42 54.7114 58.26 55.0394 58.26C55.3514 58.26 55.5074 58.42 55.5074 58.74C55.5074 59.076 55.3514 59.244 55.0394 59.244ZM63.7971 57C63.1171 57 62.5931 56.78 62.2251 56.34C61.9211 55.964 61.7691 55.488 61.7691 54.912V49.68L62.5731 49.26V54.888C62.5731 55.8 63.0131 56.256 63.8931 56.256H64.3131V57H63.7971ZM64.273 57V56.256H65.005C65.893 56.256 66.337 55.8 66.337 54.888V53.16L67.141 52.74V54.888C67.141 55.8 67.581 56.256 68.461 56.256H68.905C69.785 56.256 70.225 55.8 70.225 54.888V52.728L71.029 52.296V54.888C71.029 55.8 71.473 56.256 72.361 56.256H72.793C73.681 56.256 74.125 55.8 74.125 54.888V52.284L74.929 51.864V54.84C74.929 55.784 75.385 56.256 76.297 56.256H76.993V57H76.213C75.453 57 74.897 56.732 74.545 56.196C74.193 56.732 73.649 57 72.913 57H72.253C71.509 57 70.969 56.736 70.633 56.208C70.289 56.736 69.753 57 69.025 57H68.365C67.621 57 67.077 56.736 66.733 56.208C66.397 56.736 65.857 57 65.113 57H64.273ZM84.5374 56.256H84.9574V57H84.5254C83.8614 57 83.3294 56.924 82.9294 56.772C82.5374 56.62 82.1734 56.352 81.8374 55.968C80.8134 56.656 79.6294 57 78.2854 57H76.9534V56.256H78.2974C80.0414 56.256 81.4014 55.664 82.3774 54.48C81.6654 53.12 80.8054 52.44 79.7974 52.44C79.1094 52.44 78.4374 52.788 77.7814 53.484V52.692C78.4374 52.044 79.1214 51.72 79.8334 51.72H79.8574C81.1134 51.72 82.2014 52.568 83.1214 54.264V54.756C82.8734 55.076 82.6094 55.352 82.3294 55.584C82.5854 55.832 82.8734 56.008 83.1934 56.112C83.5214 56.208 83.9694 56.256 84.5374 56.256ZM84.923 57V56.256H85.259C86.171 56.256 86.627 55.784 86.627 54.84V49.68L87.431 49.26V54.852C87.431 55.532 87.231 56.068 86.831 56.46C86.455 56.82 85.959 57 85.343 57H84.923ZM89.7917 57V49.68L90.5957 49.26V57H89.7917Z" fill="#2F80ED"/>
</svg>
