<svg width="56" height="56" viewBox="0 0 56 56" fill="none" xmlns="http://www.w3.org/2000/svg">
<rect x="0.25" y="0.25" width="55.5" height="55.5" rx="11.75" fill="#D5E6FB" stroke="#323F4B" stroke-width="0.5"/>
<path fill-rule="evenodd" clip-rule="evenodd" d="M16 18C16 16.8954 16.8954 16 18 16H38C39.1046 16 40 16.8954 40 18V38C40 39.1046 39.1046 40 38 40H18C16.8954 40 16 39.1046 16 38V18Z" stroke="#ACCCF8" stroke-width="2" stroke-linecap="round" stroke-linejoin="round"/>
<path fill-rule="evenodd" clip-rule="evenodd" d="M23.3333 25.3334C24.4379 25.3334 25.3333 24.4379 25.3333 23.3334C25.3333 22.2288 24.4379 21.3334 23.3333 21.3334C22.2287 21.3334 21.3333 22.2288 21.3333 23.3334C21.3333 24.4379 22.2287 25.3334 23.3333 25.3334Z" stroke="#ACCCF8" stroke-width="2" stroke-linecap="round" stroke-linejoin="round"/>
<path d="M40 32L33.3334 25.3334L18.6667 40" stroke="#ACCCF8" stroke-width="2" stroke-linecap="round" stroke-linejoin="round"/>
</svg>
