<svg width="375" height="314" viewBox="0 0 375 314" fill="none" xmlns="http://www.w3.org/2000/svg">
<g clip-path="url(#clip0)">
<path d="M204.066 66.5188C218.386 66.5188 229.995 54.8938 229.995 40.5536C229.995 26.2134 218.386 14.5884 204.066 14.5884C189.745 14.5884 178.136 26.2134 178.136 40.5536C178.136 54.8938 189.745 66.5188 204.066 66.5188Z" fill="#FF6584"/>
<path d="M125.993 165.517C125.993 215.666 96.2216 233.177 59.4966 233.177C22.7715 233.177 -7 215.666 -7 165.517C-7 115.367 59.4966 51.5694 59.4966 51.5694C59.4966 51.5694 125.993 115.367 125.993 165.517Z" fill="#F2F2F2"/>
<path d="M57.0744 225.505L57.7551 183.535L86.0976 131.611L57.862 176.951L58.1679 158.079L77.7018 120.513L58.2489 153.085L58.7999 119.144L79.7166 89.236L58.8862 113.806L59.2302 51.5694L57.0683 133.959L57.2458 130.561L35.9795 97.9636L56.9051 137.085L54.9235 174.992L54.8644 173.986L30.348 139.682L54.7902 177.541L54.5423 182.281L54.4981 182.353L54.5184 182.742L49.491 278.914H56.2078L57.0137 229.239L81.3959 191.474L57.0744 225.505Z" fill="#3F3D56"/>
<path d="M323.048 139.207C323.048 200.473 286.677 221.865 241.811 221.865C196.944 221.865 160.573 200.473 160.573 139.207C160.573 77.9405 241.811 -1.33514e-05 241.811 -1.33514e-05C241.811 -1.33514e-05 323.048 77.9405 323.048 139.207Z" fill="#F2F2F2"/>
<path d="M238.851 212.493L239.683 161.219L274.308 97.7851L239.813 153.175L240.188 130.12L264.051 84.2268L240.286 124.019L240.959 82.5536L266.513 46.0165L241.065 76.0331L241.485 0L238.844 100.654L239.061 96.5018L213.08 56.6789L238.644 104.473L236.223 150.783L236.152 149.554L206.2 107.646L236.061 153.896L235.758 159.687L235.704 159.775L235.729 160.25L229.587 277.742H237.792L238.777 217.055L268.564 170.918L238.851 212.493Z" fill="#3F3D56"/>
<path d="M155.043 282.355C223.959 282.355 279.827 280.357 279.827 277.892C279.827 275.427 223.959 273.429 155.043 273.429C86.1272 273.429 30.2596 275.427 30.2596 277.892C30.2596 280.357 86.1272 282.355 155.043 282.355Z" fill="#3F3D56"/>
<path d="M330.47 314C362.243 314 388 311.548 388 308.523C388 305.498 362.243 303.046 330.47 303.046C298.697 303.046 272.94 305.498 272.94 308.523C272.94 311.548 298.697 314 330.47 314Z" fill="#3F3D56"/>
<path d="M162.336 140.763H147.751V277.892H162.336V140.763Z" fill="#2F2E41"/>
<path d="M221.892 172.003H132.355V146.849H221.892L247.821 159.426L221.892 172.003Z" fill="#3F3D56"/>
<path opacity="0.1" d="M221.892 169.974H132.355V172.003H221.892L247.821 159.426L245.73 158.411L221.892 169.974Z" fill="black"/>
<path d="M88.6001 205.271H178.136V180.117H88.6001L62.671 192.694L88.6001 205.271Z" fill="#3F3D56"/>
<path opacity="0.1" d="M64.762 191.679L62.671 192.694L88.6001 205.271H178.136V203.242H88.6001L64.762 191.679Z" fill="black"/>
<path d="M197.988 151.717H182.593V167.134H197.988V151.717Z" fill="#F9A826"/>
<path d="M120.606 200.402C124.858 200.402 128.304 196.951 128.304 192.694C128.304 188.436 124.858 184.985 120.606 184.985C116.355 184.985 112.909 188.436 112.909 192.694C112.909 196.951 116.355 200.402 120.606 200.402Z" fill="#F9A826"/>
<path d="M155.043 163.077C157.505 163.077 159.5 161.079 159.5 158.614C159.5 156.15 157.505 154.152 155.043 154.152C152.582 154.152 150.587 156.15 150.587 158.614C150.587 161.079 152.582 163.077 155.043 163.077Z" fill="#2F2E41"/>
<path d="M155.043 196.345C157.505 196.345 159.5 194.347 159.5 191.882C159.5 189.418 157.505 187.419 155.043 187.419C152.582 187.419 150.587 189.418 150.587 191.882C150.587 194.347 152.582 196.345 155.043 196.345Z" fill="#2F2E41"/>
<path d="M125.063 262.612C125.063 271.727 119.652 274.91 112.976 274.91C112.821 274.91 112.667 274.908 112.513 274.905C112.203 274.898 111.897 274.884 111.594 274.863C105.57 274.436 100.889 271.089 100.889 262.612C100.889 253.838 112.085 242.768 112.926 241.948L112.927 241.947C112.96 241.915 112.976 241.9 112.976 241.9C112.976 241.9 125.063 253.496 125.063 262.612Z" fill="#F9A826"/>
<path d="M112.536 273.516L116.956 267.33L112.525 274.195L112.513 274.905C112.203 274.898 111.897 274.884 111.594 274.863L112.071 265.743L112.067 265.672L112.075 265.659L112.12 264.797L107.677 257.916L112.134 264.151L112.145 264.334L112.505 257.444L108.701 250.332L112.551 256.234L112.926 241.948L112.927 241.899V241.947L112.865 253.212L116.651 248.746L112.849 254.183L112.749 260.352L116.285 254.431L112.734 261.26L112.678 264.69L117.811 256.449L112.659 265.887L112.536 273.516Z" fill="#3F3D56"/>
<path d="M311.85 298.548C311.85 298.548 306.113 303.386 303.094 303.083C300.075 302.781 294.338 302.781 296.754 306.107C299.169 309.432 309.132 311.246 313.359 311.549C317.586 311.851 326.945 312.153 326.342 310.339C325.738 308.525 325.134 300.06 322.719 299.455C320.303 298.851 311.85 298.548 311.85 298.548Z" fill="#575A89"/>
<path d="M344.774 293.799C344.774 293.799 340.546 300.002 337.557 300.523C334.568 301.045 329.043 302.589 332.262 305.142C335.481 307.695 345.564 306.761 349.717 305.915C353.869 305.068 362.965 302.841 361.897 301.256C360.828 299.671 357.975 291.68 355.486 291.747C352.997 291.815 344.774 293.799 344.774 293.799Z" fill="#575A89"/>
<path d="M308.489 205.083C308.489 205.083 304.604 231.732 305.509 236.569C306.415 241.406 307.019 248.965 307.019 248.965C307.019 248.965 306.415 255.314 307.019 258.337C307.623 261.361 311.246 290.083 311.246 290.687C311.246 291.292 310.642 293.106 311.246 294.618C311.85 296.13 313.057 294.92 311.246 297.339C309.434 299.758 310.642 300.362 310.944 300.362C311.246 300.362 323.021 301.572 323.624 300.362C324.228 299.153 323.322 298.851 323.624 297.339C323.926 295.827 324.228 295.525 324.832 295.223C325.436 294.92 326.644 295.525 325.738 294.013C324.832 292.501 322.719 290.687 323.322 289.78C323.926 288.873 323.021 282.222 323.021 282.222C323.021 282.222 322.417 267.407 322.115 258.337C321.813 249.267 324.832 239.895 324.832 239.895C325.208 247.316 327.961 254.419 332.682 260.151C340.532 269.524 344.457 287.059 344.457 287.059C344.457 287.059 346.268 289.78 345.362 292.199C344.457 294.618 341.739 293.106 344.457 294.618C347.174 296.13 356.533 294.013 357.439 293.106C358.345 292.199 356.231 290.99 356.835 288.571C357.439 286.152 359.854 286.757 357.741 285.548C355.628 284.338 355.024 284.641 355.024 283.431C355.024 282.222 349.589 255.919 341.136 248.36L340.532 220.847C340.532 220.847 348.08 201.498 340.23 199.684C332.38 197.87 308.489 205.083 308.489 205.083Z" fill="#2F2E41"/>
<path d="M313.963 133.472C313.963 133.472 319.096 146.17 317.888 147.984C316.68 149.798 332.682 141.937 332.682 141.937C332.682 141.937 327.549 129.239 327.549 127.727C327.549 126.216 313.963 133.472 313.963 133.472Z" fill="#A0616A"/>
<path d="M317.737 136.646C323.907 136.646 328.908 131.638 328.908 125.46C328.908 119.281 323.907 114.273 317.737 114.273C311.567 114.273 306.566 119.281 306.566 125.46C306.566 131.638 311.567 136.646 317.737 136.646Z" fill="#A0616A"/>
<path d="M332.682 136.797C332.682 136.797 324.832 135.89 320.907 140.728C316.982 145.565 316.378 146.774 316.378 146.774C316.378 146.774 307.019 161.891 308.83 169.45C309.272 170.132 309.675 170.839 310.038 171.566C310.642 172.776 310.642 189.707 310.038 192.428C309.434 195.149 308.83 196.056 309.434 199.986C310.038 203.916 304.604 210.265 310.944 211.475C317.284 212.684 322.115 211.777 324.228 209.056C326.342 206.335 324.53 204.521 331.172 204.521C337.814 204.521 342.041 199.986 342.041 199.986C342.041 199.986 338.72 196.358 339.928 195.753C341.136 195.149 339.928 193.637 339.324 192.125C338.72 190.614 338.72 189.404 339.626 189.404C340.532 189.404 339.928 188.799 339.324 187.288C338.72 185.776 349.891 159.775 343.249 152.217C336.607 144.658 333.286 140.425 333.286 140.425C333.286 140.425 334.493 135.89 332.682 136.797Z" fill="#F9A826"/>
<path d="M315.473 165.519V178.822L305.811 210.87C305.811 210.87 299.471 227.499 305.811 227.499C312.152 227.499 311.812 211.627 311.812 211.627L325.436 187.59C325.436 187.59 330.87 168.543 330.267 167.031C329.663 165.519 315.473 165.519 315.473 165.519Z" fill="#A0616A"/>
<path d="M320.605 145.867C320.605 145.867 311.548 149.496 313.963 159.17C316.378 168.845 313.963 168.543 313.963 168.543C313.963 168.543 326.342 167.333 330.267 170.055L331.172 166.426C331.172 166.426 334.795 145.565 320.605 145.867Z" fill="#F9A826"/>
<path d="M313.923 117.062C313.225 117.309 312.478 117.379 311.747 117.266C311.016 117.152 310.325 116.857 309.736 116.409C308.598 115.47 308.115 113.738 308.784 112.422C309.363 111.286 310.599 110.663 311.785 110.198C314.4 109.173 317.155 108.55 319.957 108.35C321.292 108.255 322.695 108.27 323.887 108.881C324.477 109.183 324.989 109.62 325.573 109.933C326.647 110.509 327.897 110.637 329.057 111.007C330.245 111.395 331.335 112.034 332.254 112.88C333.174 113.727 333.901 114.761 334.387 115.913C334.703 116.696 334.923 117.513 335.043 118.348C335.391 120.635 335.148 122.973 334.339 125.139C333.052 128.57 330.353 131.57 330.2 135.233C328.548 134.032 327.936 131.866 326.612 130.31C325.627 129.16 324.281 128.379 322.796 128.094C322.384 128.069 321.989 127.924 321.658 127.678C321.428 127.403 321.283 127.065 321.243 126.708L320.112 121.363C319.882 120.275 319.591 119.089 318.699 118.428C318.143 118.072 317.512 117.85 316.856 117.778C315.297 117.505 313.719 117.361 312.136 117.347" fill="#2F2E41"/>
</g>
<defs>
<clipPath id="clip0">
<rect width="395" height="314" fill="white" transform="translate(-7)"/>
</clipPath>
</defs>
</svg>
