<svg width="375" height="244" viewBox="0 0 375 244" fill="none" xmlns="http://www.w3.org/2000/svg">
<g clip-path="url(#clip0)">
<path d="M279.374 241.241C274.151 236.826 270.978 229.851 271.81 223.061C272.642 216.271 277.796 210.029 284.481 208.588C291.166 207.146 298.786 211.137 300.817 217.669C301.934 205.075 303.222 191.954 309.915 181.229C315.976 171.518 326.474 164.569 337.851 163.326C349.228 162.083 361.207 166.778 368.302 175.761C375.398 184.743 377.135 197.802 372.166 208.115C368.505 215.712 361.76 221.365 354.694 225.965C331.859 240.703 304.471 246.696 277.57 242.842L279.374 241.241Z" fill="#F2F2F2"/>
<path d="M357.052 167.039C347.664 174.687 339.052 183.241 331.34 192.578C319.271 207.139 309.504 223.465 302.381 240.987C301.859 242.265 303.934 242.821 304.45 241.557C316.105 213.081 334.712 187.982 358.569 168.556C359.64 167.684 358.114 166.173 357.052 167.039Z" fill="white"/>
<path d="M98.3418 240.041C105.516 233.977 109.874 224.397 108.731 215.071C107.588 205.746 100.51 197.172 91.3282 195.192C82.1463 193.212 71.6797 198.694 68.8909 207.666C67.3561 190.368 65.5874 172.346 56.3937 157.615C48.069 144.277 33.6505 134.733 18.024 133.026C2.39755 131.318 -14.0551 137.767 -23.8007 150.104C-33.5464 162.442 -35.9326 180.378 -29.107 194.542C-24.0788 204.977 -14.8151 212.742 -5.10909 219.06C25.8565 239.215 64.2693 247.621 100.82 242.241" fill="#F2F2F2"/>
<path d="M-8.34802 138.124C4.54574 148.63 16.3744 160.379 26.9669 173.203C37.561 186.013 46.8881 199.821 54.8169 214.433C59.2488 222.629 63.23 231.062 66.7429 239.692C67.4591 241.448 64.6091 242.212 63.9008 240.476C57.6787 225.26 49.9807 210.691 40.9173 196.977C31.8979 183.313 21.5747 170.557 10.0928 158.887C3.59853 152.289 -3.25344 146.054 -10.4321 140.209C-11.9035 139.011 -9.8073 136.936 -8.34803 138.124L-8.34802 138.124Z" fill="white"/>
<path d="M259.869 243.466H88.6965V67.7858C88.6965 30.4085 119.096 0 156.462 0H192.104C229.47 0 259.869 30.4085 259.869 67.7858V243.466Z" fill="#F2F2F2"/>
<path d="M224.228 243.466H88.6965V67.7858C88.6591 53.4637 93.193 39.5035 101.638 27.9379C101.949 27.5135 102.26 27.0945 102.58 26.6802C106.665 21.3211 111.526 16.6015 117.003 12.6771C117.312 12.4519 117.623 12.2307 117.938 12.0094C122.521 8.83702 127.478 6.24368 132.697 4.28838C133.007 4.17087 133.323 4.05313 133.638 3.94021C138.358 2.25521 143.251 1.101 148.227 0.498882C148.535 0.456733 148.852 0.423751 149.169 0.390768C154.017 -0.127815 158.908 -0.127815 163.756 0.390768C164.072 0.423751 164.389 0.456729 164.701 0.499333C169.675 1.10149 174.567 2.25556 179.286 3.94023C179.601 4.05315 179.917 4.17088 180.228 4.28862C185.383 6.21925 190.282 8.7739 194.816 11.8956C195.131 12.112 195.446 12.3333 195.757 12.5545C198.826 14.7466 201.71 17.1886 204.378 19.8557C206.517 21.995 208.511 24.2754 210.345 26.6816C210.664 27.0946 210.975 27.5135 211.286 27.9372C219.731 39.503 224.265 53.4634 224.228 67.7858V243.466Z" fill="#CCCCCC"/>
<path d="M213.207 164.891C217.351 164.891 220.71 161.53 220.71 157.385C220.71 153.24 217.351 149.879 213.207 149.879C209.063 149.879 205.703 153.24 205.703 157.385C205.703 161.53 209.063 164.891 213.207 164.891Z" fill="#F9A826"/>
<path d="M245.846 238.204H240.097L237.361 216.021L245.847 216.021L245.846 238.204Z" fill="#FFB8B8"/>
<path d="M235.99 236.561H247.078V243.544H229.009C229.009 242.627 229.189 241.719 229.54 240.872C229.891 240.024 230.405 239.254 231.053 238.606C231.702 237.957 232.471 237.443 233.318 237.092C234.165 236.741 235.073 236.561 235.99 236.561Z" fill="#2F2E41"/>
<path d="M274.453 238.204H268.704L265.968 216.021L274.454 216.021L274.453 238.204Z" fill="#FFB8B8"/>
<path d="M264.597 236.561H275.685V243.544H257.616C257.616 242.627 257.796 241.719 258.147 240.872C258.498 240.024 259.012 239.254 259.66 238.606C260.309 237.957 261.078 237.443 261.925 237.092C262.772 236.741 263.68 236.561 264.597 236.561Z" fill="#2F2E41"/>
<path d="M217.004 158.872C216.591 158.262 216.316 157.569 216.199 156.842C216.082 156.115 216.126 155.37 216.327 154.662C216.529 153.953 216.884 153.298 217.366 152.741C217.849 152.184 218.447 151.74 219.12 151.44L238.664 97.5552L248.281 102.805L225.966 154.299C226.395 155.463 226.383 156.744 225.931 157.899C225.48 159.054 224.62 160.003 223.516 160.567C222.411 161.131 221.138 161.269 219.938 160.957C218.738 160.645 217.694 159.903 217.004 158.872Z" fill="#FFB8B8"/>
<path d="M271.516 168.997C270.877 168.631 270.327 168.128 269.903 167.526C269.479 166.924 269.192 166.235 269.063 165.51C268.933 164.785 268.964 164.04 269.154 163.328C269.344 162.616 269.687 161.955 270.16 161.39L264.105 104.389L275.05 104.889L277.566 160.957C278.462 161.814 279.012 162.971 279.113 164.207C279.213 165.443 278.857 166.674 278.111 167.665C277.366 168.656 276.282 169.339 275.067 169.584C273.851 169.83 272.588 169.621 271.516 168.997Z" fill="#FFB8B8"/>
<path d="M254.057 87.5743C260.418 87.5743 265.575 82.4159 265.575 76.0526C265.575 69.6893 260.418 64.5309 254.057 64.5309C247.695 64.5309 242.538 69.6893 242.538 76.0526C242.538 82.4159 247.695 87.5743 254.057 87.5743Z" fill="#FFB8B8"/>
<path d="M271.443 156.033H236.717L236.759 155.763C236.822 155.359 242.948 115.214 238.43 102.08C237.976 100.79 238.016 99.377 238.541 98.114C239.067 96.851 240.041 95.8271 241.276 95.2393H241.276C247.734 92.197 260.132 88.4508 270.596 97.5422C272.135 98.9021 273.338 100.602 274.108 102.506C274.878 104.411 275.194 106.469 275.032 108.517L271.443 156.033Z" fill="#F9A826"/>
<path d="M243.387 121.147L227.753 117.974L235.081 100.603C235.52 98.9208 236.608 97.481 238.106 96.5997C239.604 95.7184 241.391 95.4676 243.074 95.9022C244.757 96.3368 246.199 97.4214 247.084 98.9181C247.968 100.415 248.223 102.201 247.793 103.886L243.387 121.147Z" fill="#F9A826"/>
<path d="M263.41 127.038L262.47 105.486C261.757 101.435 264.076 97.6051 267.641 96.9791C271.208 96.3554 274.691 99.1652 275.407 103.246L278.939 123.384L263.41 127.038Z" fill="#F9A826"/>
<path d="M270.288 153.453C275.875 174.74 276.485 201.804 274.977 231.325L267.474 230.387L253.874 174.094L246.37 231.325L237.929 230.856C235.407 199.881 232.952 173.289 236.991 155.799L270.288 153.453Z" fill="#2F2E41"/>
<path d="M261.646 84.9569C259.497 87.2465 255.507 86.0174 255.227 82.8895C255.205 82.6467 255.206 82.4023 255.231 82.1597C255.376 80.7742 256.176 79.5163 255.984 78.0534C255.941 77.6893 255.805 77.3423 255.59 77.0453C253.878 74.7517 249.859 78.0712 248.243 75.9948C247.252 74.7217 248.416 72.7171 247.656 71.2941C246.652 69.416 243.68 70.3425 241.816 69.314C239.742 68.1696 239.866 64.9864 241.231 63.0502C242.896 60.6889 245.815 59.4289 248.698 59.2473C251.581 59.0657 254.445 59.8453 257.136 60.8945C260.194 62.0867 263.227 63.7343 265.109 66.4241C267.398 69.6953 267.618 74.093 266.473 77.918C265.777 80.2448 263.401 83.0872 261.646 84.9569Z" fill="#2F2E41"/>
<path d="M360.922 243.768H14.688C14.5402 243.767 14.3986 243.708 14.2942 243.604C14.1898 243.499 14.1312 243.357 14.1312 243.209C14.1312 243.061 14.1898 242.92 14.2942 242.815C14.3986 242.71 14.5402 242.651 14.688 242.651H360.922C361.07 242.651 361.212 242.71 361.316 242.815C361.421 242.92 361.479 243.061 361.479 243.209C361.479 243.357 361.421 243.499 361.316 243.604C361.212 243.708 361.07 243.767 360.922 243.768Z" fill="#3F3D56"/>
<path d="M186.945 192.568H125.979C125.176 192.572 124.405 192.258 123.833 191.694C123.262 191.13 122.937 190.362 122.931 189.559V53.4383C122.937 52.6352 123.262 51.8673 123.833 51.3031C124.405 50.739 125.176 50.4246 125.979 50.4289H186.945C187.748 50.4246 188.52 50.739 189.091 51.3031C189.662 51.8673 189.987 52.6352 189.993 53.4383V189.559C189.987 190.362 189.662 191.13 189.091 191.694C188.52 192.258 187.748 192.572 186.945 192.568Z" fill="white"/>
<path d="M189.993 94.473H122.931V95.4112H189.993V94.473Z" fill="#CCCCCC"/>
<path d="M190.228 148.003H123.166V148.941H190.228V148.003Z" fill="#CCCCCC"/>
<path d="M144.972 50.4289H144.034V193.037H144.972V50.4289Z" fill="#CCCCCC"/>
<path d="M168.421 50.4289H167.483V193.037H168.421V50.4289Z" fill="#CCCCCC"/>
</g>
<defs>
<clipPath id="clip0">
<rect width="408" height="244" fill="white" transform="translate(-33)"/>
</clipPath>
</defs>
</svg>
